<svg xmlns="http://www.w3.org/2000/svg" width="290.98" height="293.987" viewBox="0 0 290.98 293.987">
  <g id="Layer_2" data-name="Layer 2" transform="translate(0.323)">
    <g id="OBJECTS">
      <path id="Vector" d="M19.771,78.481C40.2,60.324,72.616,50.339,89.981,29.116S127.351-7.3,163.913,3.653,199.934,43.026,210.9,60.647s59.869,27.426,57.089,72.595-33.828,45.085-47.981,56.213-36.485,63.675-81.157,64.223c-54.773.671-88.169-22.443-117.217-56.665C-12.682,156.575-.658,96.638,19.771,78.481Z" transform="translate(9.192 28.484)" fill="#eef"/>
      <g id="Group" transform="translate(130.37 7.816)" opacity="0.3">
        <path id="Vector-2" data-name="Vector" d="M31.976,55.438H24.125L22.19,48.687a21.983,21.983,0,0,1-5.038-2.047l-6.2,3.408L5.419,44.575l3.47-6.119a21.481,21.481,0,0,1-2.071-4.963L0,31.557V23.811l6.792-1.885a21.514,21.514,0,0,1,2.071-4.963L5.419,10.844,10.973,5.37l6.2,3.408A21.931,21.931,0,0,1,22.19,6.732L24.125,0h7.883l1.935,6.732a21.922,21.922,0,0,1,5.019,2.047l6.161-3.46,5.534,5.473-3.444,6.119a21.216,21.216,0,0,1,2.071,4.963L56.1,23.811v7.745l-6.818,1.936a21.2,21.2,0,0,1-2.032,4.963L50.7,44.575l-5.534,5.474-6.2-3.408a21.934,21.934,0,0,1-5.051,2.066l-1.936,6.731ZM28,13.225a14.073,14.073,0,1,0,.065,0Z" fill="none" stroke="#7371fc" stroke-miterlimit="10" stroke-width="0.645" stroke-dasharray="0 0" opacity="0.3"/>
      </g>
      <g id="Group-2" data-name="Group" transform="translate(253.037 135.34)" opacity="0.3">
        <path id="Vector-3" data-name="Vector" d="M21.262,36.966H16.043l-1.291-4.479a14.346,14.346,0,0,1-3.342-1.363L7.289,33.39,3.606,29.75,5.9,25.676a14.476,14.476,0,0,1-1.381-3.3L0,21.087V15.924l4.515-1.292a14.476,14.476,0,0,1,1.381-3.3L3.606,7.261l3.683-3.64,4.122,2.266a14.345,14.345,0,0,1,3.342-1.363L16.043.045,21.262,0l1.291,4.479a14.569,14.569,0,0,1,3.341,1.362l4.122-2.265L33.7,7.216l-2.29,4.073a14.478,14.478,0,0,1,1.373,3.3L37.3,15.879v5.163l-4.515,1.291a14.444,14.444,0,0,1-1.373,3.3L33.7,29.7,30.015,33.39l-4.122-2.266a14.575,14.575,0,0,1-3.341,1.363l-1.29,4.479ZM18.584,8.848h0a9.456,9.456,0,1,0,.039,0h-.039Z" fill="none" stroke="#7371fc" stroke-miterlimit="10" stroke-width="0.645" stroke-dasharray="0 0" opacity="0.3"/>
      </g>
      <g id="Group-3" data-name="Group" transform="translate(0 147.165)" opacity="0.3">
        <path id="Vector-4" data-name="Vector" d="M46.239,80.147H34.892l-2.8-9.727a31.84,31.84,0,0,1-7.257-2.963l-8.96,4.925L7.863,64.469l4.987-8.85a31.371,31.371,0,0,1-3-7.171L0,45.686V34.474l9.85-2.768a31.424,31.424,0,0,1,3-7.177L7.863,15.692l8.012-7.907,8.96,4.919a32.175,32.175,0,0,1,7.257-2.957L34.892,0H46.239l2.793,9.734A32.129,32.129,0,0,1,56.3,12.69l8.959-4.918,8.006,7.907-4.98,8.85a31.159,31.159,0,0,1,3,7.19l9.857,2.756V45.686l-9.857,2.762a31.1,31.1,0,0,1-3,7.171l4.98,8.85-8.006,7.913L56.3,67.457a31.9,31.9,0,0,1-7.264,2.963L46.24,80.146Zm-5.68-61a21.258,21.258,0,0,0-14.979,6.139,20.9,20.9,0,0,0-4.547,6.657,20.541,20.541,0,0,0-1.668,8.143A21.237,21.237,0,0,0,60.09,48.218a20.5,20.5,0,0,0,1.67-8.135,21.1,21.1,0,0,0-21.1-20.952h-.1v.013h0Z" fill="none" stroke="#7371fc" stroke-miterlimit="10" stroke-width="0.645" stroke-dasharray="0 0" opacity="0.3"/>
      </g>
      <path id="Vector-5" data-name="Vector" d="M15.417,7.565l.1-.045-.464-.207A14.286,14.286,0,0,1,7.825.148L7.76,0,7.4.71A14.234,14.234,0,0,1,.987,7.029L0,7.52H.058a14.286,14.286,0,0,1,7.489,7.048l.187.478A14.273,14.273,0,0,1,15.417,7.565Z" transform="translate(128.112 257.074)" fill="#32338c"/>
      <path id="Vector-6" data-name="Vector" d="M7.728,3.757H7.78l-.232-.1A7.137,7.137,0,0,1,3.935.071L3.9,0,3.722.355A7.156,7.156,0,0,1,.5,3.511L0,3.757A7.136,7.136,0,0,1,3.741,7.281l.161.207A7.1,7.1,0,0,1,7.728,3.757Z" transform="translate(141.71 269.24)" fill="#7371fc"/>
      <path id="Vector-7" data-name="Vector" d="M.077,5.654,0,5.615l.348-.155A10.647,10.647,0,0,0,5.754.1L5.8,0,6.07.529a10.711,10.711,0,0,0,4.793,4.725l.742.361H11.56a10.7,10.7,0,0,0-5.6,5.273l-.161.349A10.634,10.634,0,0,0,.077,5.654Z" transform="translate(265.074 71.523)" fill="#7371fc"/>
      <path id="Vector-8" data-name="Vector" d="M.039,2.814H0l.174-.077A5.336,5.336,0,0,0,2.877.058V0l.135.265A5.3,5.3,0,0,0,5.406,2.627l.374.187a5.343,5.343,0,0,0-2.8,2.633L2.9,5.609A5.349,5.349,0,0,0,.039,2.814Z" transform="translate(260.675 80.599)" fill="#32338c"/>
      <path id="Vector-9" data-name="Vector" d="M.077,5.622H0l.348-.155A10.7,10.7,0,0,0,5.754.11L5.8,0,6.07.529a10.679,10.679,0,0,0,4.793,4.725l.742.368H11.56a10.666,10.666,0,0,0-5.6,5.267l-.161.316A10.653,10.653,0,0,0,.077,5.622Z" transform="translate(7.47 128.072)" fill="#7371fc"/>
      <path id="Vector-10" data-name="Vector" d="M.039,2.808H0L.174,2.73A5.362,5.362,0,0,0,2.877.052V0l.129.265a5.381,5.381,0,0,0,2.4,2.362l.374.181a5.355,5.355,0,0,0-2.8,2.64L2.9,5.6A5.362,5.362,0,0,0,.039,2.808Z" transform="translate(3.07 137.128)" fill="#32338c"/>
      <path id="Vector-11" data-name="Vector" d="M29.907,4.5A109.673,109.673,0,0,1,62.458,30.273c3.664,4.26,7.128,9.114,7.7,14.7.645,6.409-2.58,12.5-5.677,18.137-2.58,4.692-5.728,9.817-10.915,11.179-4.245,1.117-8.7-.645-12.534-2.808-15-8.352-26.248-22.591-32.7-38.527A50.98,50.98,0,0,1,4.569,9.6c.148-2.317-5.922-2.53-4.29-4.37C2.614,2.622,9.839-.7,16.361.13A40.713,40.713,0,0,1,29.907,4.5Z" transform="translate(193.083 59.161)" fill="#32338c"/>
      <path id="Vector-12" data-name="Vector" d="M14.063,1.885A22.317,22.317,0,0,1,6.844,6.351,15.61,15.61,0,0,1,.71,7.726,6.544,6.544,0,0,1,0,7.681,3.273,3.273,0,0,0,.5,8.817a4.577,4.577,0,0,0,3.541,1.407,23.049,23.049,0,0,0,10.321-1.8,1.813,1.813,0,0,0,.922-.645,1.983,1.983,0,0,0,.168-1.149A43.388,43.388,0,0,1,15.7,0h0A14.236,14.236,0,0,1,14.063,1.885Z" transform="translate(231.717 73.228)" fill="#f8ab73"/>
      <path id="Vector-13" data-name="Vector" d="M14.3,12.751a14.236,14.236,0,0,0,1.638-1.885c.361-3.576.974-7.1,1.161-10.74C13.425-.74,7.5,3.069,4.948,5.476A14.908,14.908,0,0,0,.072,17.624a6.458,6.458,0,0,0,.161.923,6.544,6.544,0,0,0,.71.045,15.61,15.61,0,0,0,6.135-1.375h0A22.318,22.318,0,0,0,14.3,12.751Z" transform="translate(231.484 62.361)" fill="#fe814b"/>
      <path id="Vector-14" data-name="Vector" d="M67.059,36.3c1.355-3.6,1.806-7.746.329-11.289S62.227,18.667,58.4,19c1.206-2.472-.264-5.215-2.277-7.1a13.86,13.86,0,0,0-7.509-3.118c-7.689-1.188-15.54.426-23.313.084A18.328,18.328,0,0,1,17,6.893,8.34,8.34,0,0,1,12.531,0C11.524,2.188,10.4,4.834,10.563,7.236a6.8,6.8,0,0,0,3.7,5.809c-2.232.645-4.567-.742-6.012-2.582a11.672,11.672,0,0,1-2.18-6.506A12.825,12.825,0,0,0,1,10.831a16.378,16.378,0,0,0-.852,7.8,9.605,9.605,0,0,0,4.083,6.538A5.8,5.8,0,0,1,1,25.05a4.842,4.842,0,0,0,1.935,3.808,11.241,11.241,0,0,0,3.967,1.878c4.838,1.452,9.921,1.846,14.882,2.808,11.708,2.278,22.52,7.707,33.647,12a11.309,11.309,0,0,0,5.754.691A44.833,44.833,0,0,0,67.059,36.3Z" transform="translate(202.085)" fill="#fe642f"/>
      <path id="Vector-15" data-name="Vector" d="M41.495,0C35.644,5.512,27.039,6.868,19.072,5.809A23.076,23.076,0,0,0,26.1.516C18.188,0,10.021,1.93,2.126,1.162A43.41,43.41,0,0,0,.313,9.379a60.018,60.018,0,0,0,.7,17.085c1.026,6.158,2.735,12.412,6.631,17.285s10.405,8.113,16.449,6.538a19.154,19.154,0,0,0,6.212-3.1c6.986-4.957,12.063-12.212,15.482-20.112a19.314,19.314,0,0,1-5.354-8.83h0C38.753,12.3,39.643,5.893,41.495,0Z" transform="translate(210.633 26.238)" fill="#f8ab74"/>
      <path id="Vector-16" data-name="Vector" d="M16.933,19.778c7.967,1.078,16.572-.278,22.423-5.809-1.851,5.893-2.742,12.3-1.064,18.247a19.314,19.314,0,0,0,5.354,8.849q.645-1.536,1.251-3.1a41.725,41.725,0,0,0,2.909-14,23.246,23.246,0,0,0-3.9-13.587C40.033,4.862,33.4,1.822,26.771.576A26.078,26.078,0,0,0,16.946.369c-4.3.852-10.16,3.272-12.953,6.894A26.78,26.78,0,0,0,0,15.163c7.883.736,16.049-1.194,23.965-.678A23.076,23.076,0,0,1,16.933,19.778Z" transform="translate(212.771 12.249)" fill="#fe642f"/>
      <path id="Vector-17" data-name="Vector" d="M.314,13.149c.368,1.994,1.18,4.157,3.019,5.022a4.8,4.8,0,0,0,4.316-.361A10.021,10.021,0,0,0,10.8,14.653a13.862,13.862,0,0,0,2.58-6.216,7.923,7.923,0,0,0-1.871-6.261C10,.563,7.339-.618,5.256.35A9.035,9.035,0,0,0,.772,5.4,14.776,14.776,0,0,0,.314,13.149Z" transform="translate(252.342 39.133)" fill="#f8ab73"/>
      <path id="Vector-18" data-name="Vector" d="M6.75.539A3.056,3.056,0,0,0,5.225.353,3.805,3.805,0,0,0,2.69,1.812a6.824,6.824,0,0,0-1.335,2.7A23.96,23.96,0,0,0,.839,7.608L.194,7.344A3.27,3.27,0,0,1,2.864,6.053,2.18,2.18,0,0,1,4.283,6.7,2.744,2.744,0,0,1,5,8.1,2.99,2.99,0,0,1,4.935,9.59,3.305,3.305,0,0,1,4.174,10.8a4.863,4.863,0,0,1-2.451,1.291,5.161,5.161,0,0,0,2.2-1.53A3.228,3.228,0,0,0,4.5,9.409a2.519,2.519,0,0,0,0-1.239A1.891,1.891,0,0,0,2.851,6.679a2.728,2.728,0,0,0-2.077,1.1L0,8.744.135,7.531A18.98,18.98,0,0,1,.69,4.342a7.03,7.03,0,0,1,1.548-2.9A4.269,4.269,0,0,1,5.193,0a3.109,3.109,0,0,1,2.8,1.439h0A3.058,3.058,0,0,0,6.75.539Z" transform="translate(254.824 42.247)" fill="#32338c"/>
      <path id="Vector-19" data-name="Vector" d="M3.561,8.985A25.466,25.466,0,0,1,.445,17.434l-.084-.271a9.913,9.913,0,0,0,1.38.7,10.884,10.884,0,0,0,1.5.471,7.227,7.227,0,0,1-1.568-.258,8.132,8.132,0,0,1-1.5-.562L0,17.434l.09-.187A35.915,35.915,0,0,0,2.877,8.856,38.66,38.66,0,0,0,3.561,0h0A24.18,24.18,0,0,1,3.561,8.985Z" transform="translate(225.821 37.798)" fill="#32338c"/>
      <path id="Vector-20" data-name="Vector" d="M2.129,3.431C4.148,3.625,6.051,1.779,7.386.017A10.118,10.118,0,0,0,0,2.631H0A4.849,4.849,0,0,0,2.129,3.431Z" transform="translate(227.389 61.76)" fill="#fe632e"/>
      <path id="Vector-21" data-name="Vector" d="M0,0S2.18,4.157,5.019,5.938a10.118,10.118,0,0,1,7.412-2.582A21.786,21.786,0,0,0,14.321.374S8.967,2.866,6.393,2.582C3.812,2.317,0,0,0,0Z" transform="translate(222.37 58.453)" fill="#32338c"/>
      <path id="Vector-22" data-name="Vector" d="M1.728,4.992C.844,5.05.076,3.959.005,2.584S.6.06,1.482,0,3.134,1.035,3.2,2.41,2.611,4.934,1.728,4.992Z" transform="translate(218.72 41.404)" fill="#32328c"/>
      <path id="Vector-23" data-name="Vector" d="M1.728,4.992C.85,5.05.076,3.952.005,2.584S.6.06,1.482,0,3.134,1.035,3.2,2.41,2.6,4.934,1.728,4.992Z" transform="translate(236.66 41.739)" fill="#32328c"/>
      <path id="Vector-24" data-name="Vector" d="M1.122,3.1a8.977,8.977,0,0,1,.852-1.059,7.742,7.742,0,0,1,1.084-.9A12.765,12.765,0,0,1,4.3.333,2.76,2.76,0,0,1,5.748,0,3.186,3.186,0,0,1,8.425,1.456l-.077.278a18.561,18.561,0,0,1-2.226,1.13,2.521,2.521,0,0,1-.955.194,3.791,3.791,0,0,0-1.039.136,6.016,6.016,0,0,0-1.006.394,7.907,7.907,0,0,0-1,.542,11.3,11.3,0,0,0-1.89,1.5L0,5.483A7.954,7.954,0,0,1,1.122,3.1Z" transform="translate(215.094 32.992)" fill="#fe642e"/>
      <path id="Vector-25" data-name="Vector" d="M6.3,4.128a7.907,7.907,0,0,0-1-.542A6.016,6.016,0,0,0,4.3,3.192a3.714,3.714,0,0,0-1.032-.136A2.579,2.579,0,0,1,2.3,2.863,18.561,18.561,0,0,1,.077,1.733L0,1.456A3.186,3.186,0,0,1,2.664,0,2.76,2.76,0,0,1,4.116.333a12.765,12.765,0,0,1,1.239.807,8.187,8.187,0,0,1,1.09.9A8.919,8.919,0,0,1,7.315,3.1,8.135,8.135,0,0,1,8.444,5.483l-.206.148A11.3,11.3,0,0,0,6.3,4.128Z" transform="translate(234.633 32.992)" fill="#fe642e"/>
      <path id="Vector-26" data-name="Vector" d="M3.316,3.976C1.484,3.976,0,3.085,0,1.988S1.484,0,3.316,0,6.631.891,6.631,1.988,5.148,3.976,3.316,3.976Z" transform="translate(214.391 53.412)" fill="#f8ab74" opacity="0.4" style="mix-blend-mode: multiply;isolation: isolate"/>
      <path id="Vector-27" data-name="Vector" d="M3.316,3.976C1.484,3.976,0,3.085,0,1.988S1.484,0,3.316,0,6.631.891,6.631,1.988,5.148,3.976,3.316,3.976Z" transform="translate(237.394 53.412)" fill="#f8ab74" opacity="0.4" style="mix-blend-mode: multiply;isolation: isolate"/>
      <path id="Vector-28" data-name="Vector" d="M1.2,6.674a10.622,10.622,0,0,0,4.516,4.88,14.733,14.733,0,0,0,6.554,1.407,65.9,65.9,0,0,0,6.857-.329c4.574-.361,9.186-.988,13.837-.645a13.406,13.406,0,0,1,6.606,2.13A8.473,8.473,0,0,1,41.922,16.7a6.186,6.186,0,0,1,.871,3.324,6.354,6.354,0,0,0-1.039-3.227,8.234,8.234,0,0,0-2.387-2.382,13.031,13.031,0,0,0-6.451-1.865c-4.561-.239-9.141.368-13.727.787a65.4,65.4,0,0,1-6.941.265,14.453,14.453,0,0,1-6.8-1.575A11.029,11.029,0,0,1,.876,6.81,10.533,10.533,0,0,1,.327,0h0A10.611,10.611,0,0,0,1.2,6.674Z" transform="translate(214.393 0.109)" fill="#f8ab74"/>
      <path id="Vector-29" data-name="Vector" d="M46.361,16.271a7.741,7.741,0,0,0-3.146-2.284,13.539,13.539,0,0,0-7.67-.613,73.9,73.9,0,0,0-7.625,2.046,56.738,56.738,0,0,1-7.78,1.736,29.121,29.121,0,0,1-8,.071,15.784,15.784,0,0,1-7.489-2.795A11.935,11.935,0,0,1,.3,7.8,11.715,11.715,0,0,1,1.189,0,11.825,11.825,0,0,0,.647,7.707a11.541,11.541,0,0,0,4.335,6.28,15.856,15.856,0,0,0,7.251,2.582,28.8,28.8,0,0,0,7.812-.129,56.37,56.37,0,0,0,7.7-1.659,62.858,62.858,0,0,1,7.741-1.936,13.971,13.971,0,0,1,7.9.846,8.69,8.69,0,0,1,3.135,2.472A6.805,6.805,0,0,1,48,19.8h0A7.748,7.748,0,0,0,46.361,16.271Z" transform="translate(206.564 4.306)" fill="#f8ab74"/>
      <path id="Vector-30" data-name="Vector" d="M14.162,1.521A5.513,5.513,0,0,0,11.979.7a8.381,8.381,0,0,0-4.516.645A14.6,14.6,0,0,0,3.535,3.927C2.335,4.972,1.193,6.121,0,7.206A34.92,34.92,0,0,1,3.154,3.514,12.747,12.747,0,0,1,7.186.7,9.73,9.73,0,0,1,9.6.054a7.453,7.453,0,0,1,2.509.123,5.856,5.856,0,0,1,2.251,1.071,4.763,4.763,0,0,1,1.451,1.923h0A5.517,5.517,0,0,0,14.162,1.521Z" transform="translate(236.052 19.684)" fill="#f8ab74"/>
      <path id="Vector-31" data-name="Vector" d="M2.883.3A5.677,5.677,0,0,1,5.244,2.1,9.524,9.524,0,0,1,7.057,7.681a14.324,14.324,0,0,1-1.122,5.745,21.841,21.841,0,0,1-1.29,2.582A26.006,26.006,0,0,1,3.013,18.4c.458-.852.929-1.685,1.322-2.582a22.2,22.2,0,0,0,1.09-2.633,15.842,15.842,0,0,0,.922-5.532A9.757,9.757,0,0,0,4.812,2.375,5.245,5.245,0,0,0,2.754.574,4.4,4.4,0,0,0,0,.2H0A4.307,4.307,0,0,1,2.883.3Z" transform="translate(260.933 22.521)" fill="#f8ab74"/>
      <path id="Vector-32" data-name="Vector" d="M2.026.382A4.575,4.575,0,0,1,3.593,1.815,10.654,10.654,0,0,1,5.077,5.688a13.136,13.136,0,0,1,.129,4.144,11.966,11.966,0,0,1-.426,2.02c-.11.329-.219.645-.348.968a1.775,1.775,0,0,1-.232.471c-.1.136-.3.278-.464.181.181.052.3-.1.374-.239a1.6,1.6,0,0,0,.135-.471c.077-.329.135-.645.187-.994A15.868,15.868,0,0,0,4.645,9.78a16.572,16.572,0,0,0-.271-3.957A12.333,12.333,0,0,0,3.135,2.086,4.433,4.433,0,0,0,1.845.653,3.224,3.224,0,0,0,0,.046,3.1,3.1,0,0,1,2.026.382Z" transform="translate(255.862 25.771)" fill="#f8ab74"/>
      <path id="Vector-33" data-name="Vector" d="M81.551,0V88.692H0V0Z" transform="translate(23.248 55.933) rotate(-7.354)" fill="#eef"/>
      <path id="Vector-34" data-name="Vector" d="M81.551,0V19.325H0V0Z" transform="matrix(0.992, -0.128, 0.128, 0.992, 20.779, 36.763)" fill="#7371fc"/>
      <path id="Vector-35" data-name="Vector" d="M11.1,0V88.692H0V0Z" transform="translate(12.231 57.348) rotate(-7.354)" fill="#91c4fb"/>
      <path id="Vector-36" data-name="Vector" d="M11.1,0V19.325H0V0Z" transform="matrix(0.992, -0.128, 0.128, 0.992, 9.77, 38.183)" fill="#443dc3"/>
      <path id="Vector-37" data-name="Vector" d="M12.444,0V16.9H0V0Z" transform="translate(29.573 61.249) rotate(-7.485)" fill="#fefffd"/>
      <path id="Vector-38" data-name="Vector" d="M12.444,0V16.9H0V0Z" transform="translate(44.211 59.328) rotate(-7.485)" fill="#fefffd"/>
      <path id="Vector-39" data-name="Vector" d="M12.463,0V16.93H0V0Z" transform="matrix(0.992, -0.128, 0.128, 0.992, 58.838, 57.633)" fill="#fefffd"/>
      <path id="Vector-40" data-name="Vector" d="M12.463,0V16.93H0V0Z" transform="translate(73.512 55.738) rotate(-7.354)" fill="#fefffd"/>
      <path id="Vector-41" data-name="Vector" d="M12.463,0V16.93H0V0Z" transform="translate(88.179 53.844) rotate(-7.354)" fill="#fefffd"/>
      <path id="Vector-42" data-name="Vector" d="M12.444,0V16.9H0V0Z" transform="translate(32.054 80.19) rotate(-7.485)" fill="#fefffd"/>
      <path id="Vector-43" data-name="Vector" d="M12.463,0V16.93H0V0Z" transform="matrix(0.992, -0.128, 0.128, 0.992, 46.616, 78.512)" fill="#fefffd"/>
      <path id="Vector-44" data-name="Vector" d="M12.444,0V16.9H0V0Z" transform="matrix(0.991, -0.13, 0.13, 0.991, 61.329, 76.353)" fill="#fefffd"/>
      <path id="Vector-45" data-name="Vector" d="M12.463,0V16.93H0V0Z" transform="translate(75.958 74.723) rotate(-7.354)" fill="#fefffd"/>
      <path id="Vector-46" data-name="Vector" d="M12.444,0V16.9H0V0Z" transform="translate(90.611 72.517) rotate(-7.485)" fill="#fefffd"/>
      <path id="Vector-47" data-name="Vector" d="M12.444,0V16.9H0V0Z" transform="translate(34.535 99.141) rotate(-7.485)" fill="#fefffd"/>
      <path id="Vector-48" data-name="Vector" d="M12.463,0V16.93H0V0Z" transform="matrix(0.992, -0.128, 0.128, 0.992, 49.069, 97.496)" fill="#fefffd"/>
      <path id="Vector-49" data-name="Vector" d="M12.463,0V16.93H0V0Z" transform="matrix(0.992, -0.128, 0.128, 0.992, 63.737, 95.602)" fill="#fefffd"/>
      <path id="Vector-50" data-name="Vector" d="M12.463,0V16.93H0V0Z" transform="translate(78.404 93.707) rotate(-7.354)" fill="#fefffd"/>
      <path id="Vector-51" data-name="Vector" d="M12.463,0V16.93H0V0Z" transform="translate(93.071 91.819) rotate(-7.354)" fill="#fefffd"/>
      <path id="Vector-52" data-name="Vector" d="M12.463,0V16.93H0V0Z" transform="translate(36.841 118.376) rotate(-7.354)" fill="#fefffd"/>
      <path id="Vector-53" data-name="Vector" d="M12.463,0V16.93H0V0Z" transform="matrix(0.992, -0.128, 0.128, 0.992, 51.514, 116.475)" fill="#fefffd"/>
      <path id="Vector-54" data-name="Vector" d="M12.463,0V16.93H0V0Z" transform="matrix(0.992, -0.128, 0.128, 0.992, 66.182, 114.587)" fill="#fefffd"/>
      <path id="Vector-55" data-name="Vector" d="M12.463,0V16.93H0V0Z" transform="matrix(0.992, -0.128, 0.128, 0.992, 80.85, 112.693)" fill="#fefffd"/>
      <path id="Vector-56" data-name="Vector" d="M12.463,0V16.93H0V0Z" transform="translate(95.517 110.798) rotate(-7.354)" fill="#fefffd"/>
      <path id="Vector-57" data-name="Vector" d="M.754,12.966l-.7-5.441A6.233,6.233,0,0,1,5.451.541L9.231.051a6.239,6.239,0,0,1,6.98,5.39l1.213,9.385A6.234,6.234,0,0,1,12.037,21.8h0" transform="translate(15.514 24.373)" fill="none" stroke="#32338c" stroke-linecap="round" stroke-linejoin="round" stroke-width="2.601" stroke-dasharray="0 0"/>
      <path id="Vector-58" data-name="Vector" d="M.754,12.967l-.7-5.441A6.241,6.241,0,0,1,5.437.542L9.217.051a6.239,6.239,0,0,1,6.98,5.37L17.4,14.806a6.234,6.234,0,0,1-5.38,6.984h0" transform="translate(26.307 22.979)" fill="none" stroke="#32338c" stroke-linecap="round" stroke-linejoin="round" stroke-width="2.601" stroke-dasharray="0 0"/>
      <path id="Vector-59" data-name="Vector" d="M.754,12.967.051,7.52A6.241,6.241,0,0,1,5.437.536L9.217.052A6.232,6.232,0,0,1,16.2,5.435L17.41,14.82A6.227,6.227,0,0,1,12.03,21.8h0" transform="translate(37.099 21.591)" fill="none" stroke="#32338c" stroke-linecap="round" stroke-linejoin="round" stroke-width="2.601" stroke-dasharray="0 0"/>
      <path id="Vector-60" data-name="Vector" d="M.754,12.966l-.7-5.448A6.241,6.241,0,0,1,5.431.535L9.2.051a6.239,6.239,0,0,1,6.98,5.383l1.206,9.385A6.234,6.234,0,0,1,12,21.8h0" transform="translate(47.891 20.197)" fill="none" stroke="#32338c" stroke-linecap="round" stroke-linejoin="round" stroke-width="2.601" stroke-dasharray="0 0"/>
      <path id="Vector-61" data-name="Vector" d="M.752,12.948.049,7.5A6.228,6.228,0,0,1,5.429.542L9.216.052a6.227,6.227,0,0,1,6.973,5.383L17.4,14.82a6.234,6.234,0,0,1-5.38,6.984h0" transform="translate(58.685 18.821)" fill="none" stroke="#32338c" stroke-linecap="round" stroke-linejoin="round" stroke-width="2.601" stroke-dasharray="0 0"/>
      <path id="Vector-62" data-name="Vector" d="M.755,12.967l-.7-5.448A6.227,6.227,0,0,1,5.431.542L9.218.052a6.227,6.227,0,0,1,6.973,5.383L17.4,14.826a6.227,6.227,0,0,1-5.38,6.977h0" transform="translate(69.475 17.408)" fill="none" stroke="#32338c" stroke-linecap="round" stroke-linejoin="round" stroke-width="2.601" stroke-dasharray="0 0"/>
      <path id="Vector-63" data-name="Vector" d="M.755,12.965l-.7-5.441A6.227,6.227,0,0,1,5.432.54L9.219.049a6.232,6.232,0,0,1,6.96,5.39l1.213,9.385A6.234,6.234,0,0,1,12.006,21.8h0" transform="translate(80.259 16.017)" fill="none" stroke="#32338c" stroke-linecap="round" stroke-linejoin="round" stroke-width="2.601" stroke-dasharray="0 0"/>
      <path id="Vector-64" data-name="Vector" d="M98.851,197.82A98.91,98.91,0,1,1,197.7,98.91,98.881,98.881,0,0,1,98.851,197.82Z" transform="translate(39.937 50.862)" fill="#32338c"/>
      <path id="Vector-65" data-name="Vector" d="M98.851,197.82A98.91,98.91,0,1,1,197.7,98.91,98.881,98.881,0,0,1,98.851,197.82Z" transform="translate(44.587 50.862)" fill="#7371fc"/>
      <path id="Vector-66" data-name="Vector" d="M150.089,103.733c12.2-18.718,15.882-41.438,14.837-64.03a90.217,90.217,0,0,0-152.76,95.818c28.945,13.7,63.637,15.536,93.413,3.518C123.422,131.837,139.613,119.857,150.089,103.733Z" transform="translate(53.271 59.567)" fill="#fff"/>
      <path id="Vector-67" data-name="Vector" d="M137.924,64.03c-10.5,16.136-26.693,28.1-44.51,35.307C63.637,111.355,28.945,109.515,0,95.818A90.215,90.215,0,1,0,152.76,0C153.831,22.591,150.148,45.3,137.924,64.03Z" transform="translate(65.436 99.271)" fill="#eef"/>
      <path id="Vector-68" data-name="Vector" d="M0,0,44.394,35.513l-1.967,2.33Z" transform="translate(100.025 113.091)" fill="#32338c"/>
      <path id="Vector-69" data-name="Vector" d="M22.965,71.93,0,2.136,3.38,0Z" transform="translate(141.749 148.701)" fill="#32338c"/>
      <path id="Vector-70" data-name="Vector" d="M6.683,13.374a6.687,6.687,0,1,1,6.683-6.687A6.685,6.685,0,0,1,6.683,13.374Z" transform="translate(136.756 143.085)" fill="#fe814b"/>
      <path id="Vector-71" data-name="Vector" d="M0,0V19.183" transform="translate(143.439 59.524)" fill="none" stroke="#32338c" stroke-linecap="round" stroke-linejoin="round" stroke-width="2.504" stroke-dasharray="0 0"/>
      <path id="Vector-72" data-name="Vector" d="M0,0V19.183" transform="translate(143.439 220.83)" fill="none" stroke="#32338c" stroke-linecap="round" stroke-linejoin="round" stroke-width="2.504" stroke-dasharray="0 0"/>
      <path id="Vector-73" data-name="Vector" d="M19.172,0H0" transform="translate(214.455 149.772)" fill="none" stroke="#32338c" stroke-linecap="round" stroke-linejoin="round" stroke-width="2.504" stroke-dasharray="0 0"/>
      <path id="Vector-74" data-name="Vector" d="M19.178,0H0" transform="translate(53.244 149.772)" fill="none" stroke="#32338c" stroke-linecap="round" stroke-linejoin="round" stroke-width="2.504" stroke-dasharray="0 0"/>
      <path id="Vector-75" data-name="Vector" d="M0,0,16.185,10.282" transform="translate(67.307 101.382)" fill="none" stroke="#32338c" stroke-linecap="round" stroke-linejoin="round" stroke-width="2.504" stroke-dasharray="0 0"/>
      <path id="Vector-76" data-name="Vector" d="M0,0,16.178,10.289" transform="translate(203.386 187.874)" fill="none" stroke="#32338c" stroke-linecap="round" stroke-linejoin="round" stroke-width="2.504" stroke-dasharray="0 0"/>
      <path id="Vector-77" data-name="Vector" d="M10.282,0,0,16.195" transform="translate(181.518 73.595)" fill="none" stroke="#32338c" stroke-linecap="round" stroke-linejoin="round" stroke-width="2.504" stroke-dasharray="0 0"/>
      <path id="Vector-78" data-name="Vector" d="M10.276,0,0,16.195" transform="translate(95.078 209.748)" fill="none" stroke="#32338c" stroke-linecap="round" stroke-linejoin="round" stroke-width="2.504" stroke-dasharray="0 0"/>
      <path id="Vector-79" data-name="Vector" d="M16.178,0,0,10.282" transform="translate(203.386 101.382)" fill="none" stroke="#32338c" stroke-linecap="round" stroke-linejoin="round" stroke-width="2.504" stroke-dasharray="0 0"/>
      <path id="Vector-80" data-name="Vector" d="M16.185,0,0,10.289" transform="translate(67.307 187.874)" fill="none" stroke="#32338c" stroke-linecap="round" stroke-linejoin="round" stroke-width="2.504" stroke-dasharray="0 0"/>
      <path id="Vector-81" data-name="Vector" d="M0,0,10.276,16.195" transform="translate(95.078 73.595)" fill="none" stroke="#32338c" stroke-linecap="round" stroke-linejoin="round" stroke-width="2.504" stroke-dasharray="0 0"/>
      <path id="Vector-82" data-name="Vector" d="M0,0,10.282,16.195" transform="translate(181.518 209.748)" fill="none" stroke="#32338c" stroke-linecap="round" stroke-linejoin="round" stroke-width="2.504" stroke-dasharray="0 0"/>
      <path id="Vector-83" data-name="Vector" d="M93.091,0V51.188H0V0Z" transform="translate(6.523 232.576) rotate(-20.761)" fill="#f8ab74"/>
      <path id="Vector-84" data-name="Vector" d="M0,33l54.728,13.09L87.046,0,52.587,40.438Z" transform="translate(6.547 199.563)" fill="#fe814b"/>
      <path id="Vector-85" data-name="Vector" d="M83.379,0V107.614H0V0Z" transform="matrix(0.973, 0.23, -0.23, 0.973, 188.653, 169.74)" fill="#32338c"/>
      <path id="Vector-86" data-name="Vector" d="M83.379,0V107.614H0V0Z" transform="matrix(0.973, 0.23, -0.23, 0.973, 190.163, 170.09)" fill="#91c4fb"/>
      <path id="Vector-87" data-name="Vector" d="M69.728,0V90.936H0V0Z" transform="translate(194.415 181.787) rotate(13.288)" fill="#fff"/>
      <path id="Vector-88" data-name="Vector" d="M32.223,0A7.259,7.259,0,0,1,39.48,7.261v4.163H0V7.261A7.259,7.259,0,0,1,7.257,0Z" transform="matrix(0.973, 0.23, -0.23, 0.973, 214.136, 164.02)" fill="#32338c"/>
      <path id="Vector-89" data-name="Vector" d="M6.7,13.412a6.706,6.706,0,1,1,6.7-6.706A6.7,6.7,0,0,1,6.7,13.412Z" transform="translate(196.061 192.627) rotate(-11.947)" fill="#eeeefe"/>
      <path id="Vector-90" data-name="Vector" d="M0,.445,2.806,4.983,10.863,0" transform="translate(200.863 194.528)" fill="none" stroke="#fe814b" stroke-linecap="round" stroke-linejoin="round" stroke-width="2.065" stroke-dasharray="0 0"/>
      <path id="Vector-91" data-name="Vector" d="M0,0,36.937,8.72" transform="translate(217.055 196.594)" fill="none" stroke="#91c4fb" stroke-linecap="round" stroke-linejoin="round" stroke-width="2.065" stroke-dasharray="0 0"/>
      <path id="Vector-92" data-name="Vector" d="M0,0,36.937,8.727" transform="translate(216.094 200.674)" fill="none" stroke="#91c4fb" stroke-linecap="round" stroke-linejoin="round" stroke-width="2.065" stroke-dasharray="0 0"/>
      <path id="Vector-93" data-name="Vector" d="M0,0,36.931,8.727" transform="translate(215.132 204.752)" fill="none" stroke="#91c4fb" stroke-linecap="round" stroke-linejoin="round" stroke-width="2.065" stroke-dasharray="0 0"/>
      <path id="Vector-94" data-name="Vector" d="M11.271,11.613a6.709,6.709,0,1,1,1.954-3.366h0A6.707,6.707,0,0,1,11.271,11.613Z" transform="translate(192.392 211.893)" fill="#eeeefe"/>
      <path id="Vector-95" data-name="Vector" d="M0,.452,2.806,4.989,10.863,0" transform="translate(195.961 215.307)" fill="none" stroke="#fe814b" stroke-linecap="round" stroke-linejoin="round" stroke-width="2.065" stroke-dasharray="0 0"/>
      <path id="Vector-96" data-name="Vector" d="M0,0,36.937,8.72" transform="translate(212.152 217.377)" fill="none" stroke="#91c4fb" stroke-linecap="round" stroke-linejoin="round" stroke-width="2.065" stroke-dasharray="0 0"/>
      <path id="Vector-97" data-name="Vector" d="M0,0,36.937,8.72" transform="translate(211.191 221.457)" fill="none" stroke="#91c4fb" stroke-linecap="round" stroke-linejoin="round" stroke-width="2.065" stroke-dasharray="0 0"/>
      <path id="Vector-98" data-name="Vector" d="M0,0,36.931,8.727" transform="translate(210.23 225.537)" fill="none" stroke="#91c4fb" stroke-linecap="round" stroke-linejoin="round" stroke-width="2.065" stroke-dasharray="0 0"/>
      <path id="Vector-99" data-name="Vector" d="M6.706,13.406a6.7,6.7,0,1,1,6.706-6.7A6.7,6.7,0,0,1,6.706,13.406Z" transform="translate(185.262 242.577) rotate(-64.543)" fill="#eeeefe"/>
      <path id="Vector-100" data-name="Vector" d="M0,.452,2.8,4.983,10.857,0" transform="translate(191.058 236.09)" fill="none" stroke="#fe814b" stroke-linecap="round" stroke-linejoin="round" stroke-width="2.065" stroke-dasharray="0 0"/>
      <path id="Vector-101" data-name="Vector" d="M0,0,36.937,8.72" transform="translate(207.25 238.162)" fill="none" stroke="#91c4fb" stroke-linecap="round" stroke-linejoin="round" stroke-width="2.065" stroke-dasharray="0 0"/>
      <path id="Vector-102" data-name="Vector" d="M0,0,36.937,8.72" transform="translate(206.289 242.24)" fill="none" stroke="#91c4fb" stroke-linecap="round" stroke-linejoin="round" stroke-width="2.065" stroke-dasharray="0 0"/>
      <path id="Vector-103" data-name="Vector" d="M0,0,36.931,8.727" transform="translate(205.327 246.32)" fill="none" stroke="#91c4fb" stroke-linecap="round" stroke-linejoin="round" stroke-width="2.065" stroke-dasharray="0 0"/>
      <path id="Vector-104" data-name="Vector" d="M57.285,0V3.337a2.936,2.936,0,0,1-2.935,2.937H2.935A2.936,2.936,0,0,1,0,3.337V0Z" transform="matrix(0.973, 0.23, -0.23, 0.973, 202.842, 173.089)" fill="#91c4fb" style="mix-blend-mode: multiply;isolation: isolate"/>
      <path id="Vector-105" data-name="Vector" d="M6.7,13.41a6.705,6.705,0,1,1,6.7-6.705A6.7,6.7,0,0,1,6.7,13.41Z" transform="matrix(0.845, -0.534, 0.534, 0.845, 180.188, 258.107)" fill="#eeeefe"/>
      <path id="Vector-106" data-name="Vector" d="M0,.445,2.8,4.983,10.857,0" transform="translate(186.311 256.912)" fill="none" stroke="#fe814b" stroke-linecap="round" stroke-linejoin="round" stroke-width="2.065" stroke-dasharray="0 0"/>
      <path id="Vector-107" data-name="Vector" d="M0,0,36.931,8.72" transform="translate(202.502 258.977)" fill="none" stroke="#91c4fb" stroke-linecap="round" stroke-linejoin="round" stroke-width="2.065" stroke-dasharray="0 0"/>
      <path id="Vector-108" data-name="Vector" d="M0,0,36.931,8.727" transform="translate(201.541 263.057)" fill="none" stroke="#91c4fb" stroke-linecap="round" stroke-linejoin="round" stroke-width="2.065" stroke-dasharray="0 0"/>
      <path id="Vector-109" data-name="Vector" d="M0,0,36.937,8.72" transform="translate(200.573 267.143)" fill="none" stroke="#91c4fb" stroke-linecap="round" stroke-linejoin="round" stroke-width="2.065" stroke-dasharray="0 0"/>
      <path id="Vector-110" data-name="Vector" d="M3.709,6.158A58.38,58.38,0,0,1,0,11.967,57.724,57.724,0,0,1,3.083,5.809,59.509,59.509,0,0,1,6.786,0h0A57.679,57.679,0,0,1,3.709,6.158Z" transform="translate(240.632 93.862)" fill="#fff"/>
      <path id="Vector-111" data-name="Vector" d="M64.127,38.947c-6.444,7.616-15.533,16.136-15.533,16.136L0,34.732,7.135,18.073,42.71,29.046,63.211,0,77.08,21.113A194.4,194.4,0,0,1,64.127,38.947Z" transform="translate(179.847 102.338)" fill="#32338c"/>
      <path id="Vector-112" data-name="Vector" d="M26.07,11.55,21.045,23.285l-4.98-1.7-11,.452-3.225-1.62a2.318,2.318,0,0,1-.987-3.227l.877-1.568L.951,15.01a2.318,2.318,0,0,1-.181-3.5l.871-.852L.454,9.052a2.324,2.324,0,0,1,.793-3.44l1.206-.645L2.06,2.83A2.324,2.324,0,0,1,3.8.158h0a5.435,5.435,0,0,1,4.483.871L18.407,8.323Z" transform="translate(160.911 108.866)" fill="#f8ab72"/>
      <path id="Vector-113" data-name="Vector" d="M4.606.84A.936.936,0,0,0,4.335.11.838.838,0,0,0,3.883,0,3.264,3.264,0,0,0,.955,2.15a4.857,4.857,0,0,0,.264,3.757,1.763,1.763,0,0,1,.252.807,1.582,1.582,0,0,1-.258.684C.806,8.108.406,8.824,0,9.541a22.352,22.352,0,0,0,9.734,6.926h0C7.4,11.471,5.032,6.339,4.606.84Z" transform="translate(169.719 101.511)" fill="#f8ab72"/>
      <path id="Vector-114" data-name="Vector" d="M3.664,3.214c-.432-.323-.852-.645-1.29-1.007s-.826-.7-1.219-1.065S.368.407,0,0C.464.29.9.607,1.335.929s.852.645,1.29,1,.826.7,1.219,1.071S4.632,3.737,5,4.144C4.535,3.853,4.1,3.537,3.664,3.214Z" transform="translate(170.003 110.509)" fill="#32338c"/>
      <path id="Vector-115" data-name="Vector" d="M15.205,4.518a3.653,3.653,0,0,1,2.309,3.757l-.593,5.99-4.07,6.674A1.7,1.7,0,0,1,11.78,18.6c.6-1.872,2.58-6.874,2.58-6.874V8.2s-1.935,8.165-3.774,9.682S2.091,16.44.265,14.975c-.877-.716.684-3.027.9-6.455C1.433,4.873.4.129,3.439,0Z" transform="translate(169.035 49.055)" fill="#f8ab74"/>
      <path id="Vector-116" data-name="Vector" d="M4.348,4.105A20.948,20.948,0,0,1,2.2,12.012,19.146,19.146,0,0,1,0,15.472a27.5,27.5,0,0,0,1.935-3.582A24.537,24.537,0,0,0,3.3,8.068a25.309,25.309,0,0,0,.761-3.989A27.732,27.732,0,0,0,4.212,0h0A18.988,18.988,0,0,1,4.348,4.105Z" transform="translate(175.79 51.778)" fill="#32338c"/>
      <path id="Vector-117" data-name="Vector" d="M3.98,4.015a27.647,27.647,0,0,1-.645,3.97,26.2,26.2,0,0,1-1.251,3.821q-.4.929-.852,1.82c-.161.3-.31.594-.49.884A1.426,1.426,0,0,1,0,15.155a1.413,1.413,0,0,0,.645-.71c.155-.29.277-.607.413-.9.271-.607.522-1.226.755-1.852a31.138,31.138,0,0,0,1.161-3.8,30.766,30.766,0,0,0,.71-3.918A38.938,38.938,0,0,0,3.98,0h0A23.838,23.838,0,0,1,3.98,4.015Z" transform="translate(171.545 50.229)" fill="#32338c"/>
    </g>
  </g>
</svg>
