<svg xmlns="http://www.w3.org/2000/svg" width="130" height="126.022" viewBox="0 0 130 126.022">
  <g id="check-mark-svgrepo-com" transform="translate(0 -7.833)">
    <path id="Path_79" data-name="Path 79" d="M120.363,49.976a2.031,2.031,0,0,0-1.3,2.561,59.128,59.128,0,1,1-12.82-21.769,2.031,2.031,0,0,0,2.979-2.763,62.79,62.79,0,1,0,13.7,23.271A2.032,2.032,0,0,0,120.363,49.976Z" fill="#11b242"/>
    <path id="Path_80" data-name="Path 80" d="M188.2,78.012a6.1,6.1,0,0,0-8.622,0l-1.818,1.818a2.031,2.031,0,1,0,2.873,2.872l1.819-1.819a2.034,2.034,0,1,1,2.875,2.877L115.287,153.8a2.033,2.033,0,0,1-2.875,0L85.058,126.445a2.034,2.034,0,1,1,2.876-2.876l24.479,24.479a2.031,2.031,0,0,0,2.873,0l59.63-59.63a2.031,2.031,0,0,0-2.872-2.873L113.85,143.74,90.808,120.7a6.1,6.1,0,1,0-8.622,8.621l27.353,27.353a6.1,6.1,0,0,0,8.622,0L188.2,86.632a6.1,6.1,0,0,0,0-8.621Z" transform="translate(-59.986 -51.027)" fill="#11b242"/>
  </g>
</svg>
