<svg xmlns="http://www.w3.org/2000/svg" width="14.286" height="11.099" viewBox="0 0 14.286 11.099">
  <path id="Mail" d="M14.753,11.564a1.235,1.235,0,0,1-.9.37H2.117a1.233,1.233,0,0,1-.9-.37,1.208,1.208,0,0,1-.375-.891V4.414a4.247,4.247,0,0,0,.805.686Q4.533,7.038,5.609,7.819q.454.331.738.517a4.585,4.585,0,0,0,.753.378,2.313,2.313,0,0,0,.877.193h.016a2.317,2.317,0,0,0,.877-.193,4.669,4.669,0,0,0,.753-.378q.284-.186.737-.517Q11.716,6.85,14.33,5.1a4.415,4.415,0,0,0,.8-.686v6.259A1.209,1.209,0,0,1,14.753,11.564Zm-.989-7.308-3.73,2.562c-.053.037-.167.117-.339.24s-.316.224-.431.3-.252.161-.414.256a2.373,2.373,0,0,1-.459.213,1.284,1.284,0,0,1-.4.071H7.977a1.3,1.3,0,0,1-.4-.071,2.394,2.394,0,0,1-.458-.213c-.162-.094-.3-.18-.415-.256s-.258-.176-.43-.3l-.339-.24q-.726-.5-2.089-1.439T2.213,4.256a3.969,3.969,0,0,1-.933-.91A1.832,1.832,0,0,1,.842,2.27a1.577,1.577,0,0,1,.331-1.025,1.143,1.143,0,0,1,.944-.41H13.852a1.238,1.238,0,0,1,.9.371,1.2,1.2,0,0,1,.379.89,2.063,2.063,0,0,1-.391,1.19A3.755,3.755,0,0,1,13.764,4.256Z" transform="translate(-0.842 -0.835)" fill="#ffc80a" fill-rule="evenodd"/>
</svg>
