<svg xmlns="http://www.w3.org/2000/svg" width="18.101" height="27.152" viewBox="0 0 18.101 27.152">
  <g id="_Icon_-_L" data-name="💚 Icon - L" transform="translate(-6 -3)">
    <path id="Path_3" data-name="Path 3" d="M20.067,9.034A6.034,6.034,0,1,1,14.034,3,6.034,6.034,0,0,1,20.067,9.034Zm-3.017,0a3.017,3.017,0,1,1-3.017-3.017A3.017,3.017,0,0,1,17.051,9.034Z" transform="translate(1.017 0)" fill="gray" fill-rule="evenodd"/>
    <path id="Path_4" data-name="Path 4" d="M21.084,16.525a1.508,1.508,0,0,0-1.508-1.508H10.525a1.508,1.508,0,0,0-1.508,1.508v9.051H6V16.525A4.525,4.525,0,0,1,10.525,12h9.051A4.525,4.525,0,0,1,24.1,16.525v9.051H21.084Z" transform="translate(0 4.576)" fill="gray" fill-rule="evenodd"/>
  </g>
</svg>
